<?xml version="1.0" encoding="UTF-8"?>
<svg data-bbox="0 0 205 207" height="207" width="205" xmlns="http://www.w3.org/2000/svg" data-type="ugc">
    <g>
        <path fill="#131719" d="M0 0h205v207H0V0Z"/>
        <path fill="#F3D04E" d="M102.563 2.125C106.001 3 106.001 3 108.001 6c.195 2.48.195 2.48.124 5.188l-.054 2.73L108 16l3.523-.098c15.148.024 32.793 7.39 43.476 18.098a106.86 106.86 0 0 1 2 4 974.82 974.82 0 0 1-8.697 9.027c-.99 1.02-1.974 2.046-2.953 3.076a382.293 382.293 0 0 1-4.267 4.4l-2.587 2.683C136 59 136 59 133.314 58.86c-2.515-.935-4.347-2.076-6.501-3.672-12.102-8.167-25.008-9.233-39.3-6.528-5.753 1.88-10.012 4.962-14.442 9.047C71 59 71 59 68.512 58.945c-3.021-1.137-4.594-2.56-6.824-4.883l-2.113-2.152C58 50 58 50 58 48l-1.734-.742c-2.646-1.47-4.414-3.211-6.515-5.383L47.61 39.68 46 38c2.665-7.18 12.017-11.477 18.551-14.813 10.273-4.57 20.144-7.752 31.45-7.187l-.106-2.3-.082-3.012-.105-2.989C96 5 96 5 97.29 3.137 99 2 99 2 102.563 2.125Z"/>
        <path fill="#F1D047" d="M124.313 61.75c8.987 7.455 14.82 15.986 15.926 27.793.293 10.442-3.154 18.807-10.239 26.457a235.451 235.451 0 0 1-3.242 2.719c-7.524 6.194-7.524 6.194-10.574 15.097-.087 2.526-.06 5.027.003 7.554.103 6.11.103 6.11-1.726 9.4-4.325 4.23-4.325 4.23-6.46 4.23-3.038-23.781-3.038-23.781 1.8-32.093 3.782-4.537 8.063-8.2 12.653-11.891 5.466-4.442 7.833-9.077 9.078-15.95-.114-9.09-2.539-16.864-8.832-23.601-6.367-5.489-15.008-7.971-23.313-7.703-9.1.908-15.357 4.335-21.386 11.238-3.524 5.382-5.132 10.71-5.376 17.125l-.148 2.633c1.493 9.246 7.148 15.546 13.773 21.742 1.445 1.384 2.888 2.769 4.329 4.156l1.919 1.807c3.06 3.13 2.619 5.836 2.6 10.076l-.01 3.945-.025 4.141-.014 4.164A3987.48 3987.48 0 0 1 95 155c-5.684-5.685-7.23-7.694-7.312-15.75l.01-2.422C87.544 130.8 86.336 128.221 82 124c-1.711-1.565-1.711-1.565-3.376-2.813-8.693-7.33-13.484-15.893-15.039-27.199-.51-10.257 3.036-18.586 9.602-26.363 13.738-14.218 34.464-17.601 51.125-5.875Z"/>
        <path fill="#D07607" d="m79 132 .078 3.727c.056 1.632.114 3.265.172 4.898l.043 2.45c.22 5.428 1.148 8.6 4.707 12.925l1.615 1.289c2.042 2.523 1.725 4.486 1.678 7.691l-.03 3.526c-.024 1.215-.05 2.43-.076 3.681l-.04 3.717c-.036 3.033-.085 6.064-.147 9.096-15.49-1.574-29.82-8.172-41-19 1.312-2.898 2.716-4.966 4.965-7.208.597-.6 1.195-1.2 1.81-1.82l1.948-1.925 2.002-2c1.394-1.392 2.79-2.78 4.188-4.166a2094.88 2094.88 0 0 0 6.433-6.412c1.354-1.35 2.709-2.699 4.064-4.047l1.954-1.95C77.884 132 77.884 132 79 132Z"/>
        <path fill="#D8850B" d="M124 132a191.67 191.67 0 0 1 13.371 12.273l1.719 1.723c1.785 1.791 3.566 3.585 5.347 5.379l3.663 3.676c2.97 2.98 5.935 5.964 8.9 8.949-3.89 8.161-11.97 11.722-19.875 15.313l-2.213 1.022C129.08 182.876 123.28 184.073 117 185c-.145-4.395-.234-8.79-.313-13.188l-.126-3.775c-.122-9.046-.122-9.046 1.54-11.98 1.356-1.358 1.356-1.358 3.899-3.057 1.584-1.584 1.22-3.277 1.316-5.473l.127-2.724.12-2.865.13-2.877c.107-2.354.208-4.707.307-7.061Z"/>
        <path fill="#F1BA26" d="M108 73c5.235 2.475 9.392 6.785 12 12 .746 6.929.706 12.632-3.5 18.379-3.436 3.713-7.41 6.25-12.48 6.86-5.853.196-10.295-.644-15.02-4.239-4.567-4.412-5.359-8.9-5.563-15.125.226-5.42.536-8.949 4.563-12.875 6.004-5.383 12.126-6.188 20-5Z"/>
        <path fill="#E3A416" d="M148 111h39c0 15.166-5.626 27.627-14 40-3.316-1.447-5.52-3.262-8.074-5.809l-2.272-2.263-2.341-2.365-2.377-2.354-2.26-2.268-2.065-2.072C152 132 152 132 151 129l14-1 3-9h-22c1-5 1-5 2-8Z"/>
        <path fill="#D58407" d="M17 111h39c2 5 2 5 2 8H36l2 10h14c-3.894 5.727-8.382 10.602-13.25 15.5l-1.899 1.926-1.804 1.793-1.63 1.623C32 151 32 151 30 151c-4.907-5.73-7.592-12.344-9.875-19.438l-.93-2.658a1314704140.602 1314704140.602 0 0 0-1.648-4.984C16.753 119.683 17 115.31 17 111Z"/>
        <path fill="#F1C63E" d="M173 51c14.394 23.824 14.394 23.824 14 37-1 1-1 1-4.51 1.114-1.56 0-3.121-.006-4.681-.016l-2.485-.005c-2.629-.005-5.258-.018-7.887-.03-1.777-.006-3.555-.01-5.333-.014A5723.95 5723.95 0 0 1 149 89l-2-9h21l-2-9h-14c3.994-4.907 8.304-9.443 12.75-13.938l1.755-1.793C170.763 51 170.763 51 173 51Z"/>
        <path fill="#E7AC1E" d="M31 51h2c1.34 1.363 1.34 1.363 2.938 3.313 3.614 4.273 7.501 8.189 11.505 12.093A217.477 217.477 0 0 1 51 70v1H38l-2 9h21l-3 9H17c0-5.628.44-9.573 2.125-14.75l.671-2.104C22.32 64.56 25.793 57.136 31 51Z"/>
        <path fill="#1D2324" d="M138 38c0 4 0 4-1.688 6.313C134 46 134 46 131.73 45.761c-4.105-1.146-7.896-2.896-11.792-4.606-10.296-4.052-25.56-3.907-35.899-.09-2.808 1.286-5.564 2.639-8.25 4.164C74 46 74 46 70 46c-2.75-2.313-2.75-2.313-5-5v-3c24.239-13.088 48.692-13.812 73 0Z"/>
        <path fill="#E5A415" d="m68 75 1 2h5c1 3 1 3 .063 6-.947 3.123-1.353 6.05-1.5 9.313l-.122 2.55c1.636 9.184 7.196 15.452 13.809 21.637 1.445 1.384 2.887 2.769 4.328 4.156l1.92 1.807c3.06 3.13 2.618 5.836 2.6 10.076l-.01 3.945-.025 4.141c-.006 1.388-.01 2.776-.014 4.164A3987.48 3987.48 0 0 1 95 155c-5.685-5.685-7.23-7.694-7.313-15.75l.01-2.422C87.544 130.8 86.335 128.221 82 124c-1.71-1.565-1.71-1.565-3.375-2.813-8.672-7.311-13.611-15.94-15.004-27.269C63.34 86.838 64.87 81.318 68 75Z"/>
        <path fill="#CE6C07" d="M101 115h2c1.125 5.446 1.168 10.754 1.21 16.29l.087 6.038c.041 3.158.078 6.316.104 9.474.028 3.058.074 6.116.122 9.175l.01 2.863.05 2.67.025 2.341c.49 2.682 1.715 4.037 3.392 6.149.623 4.144.464 8.314.438 12.5l.06 3.457-.002 3.324.006 3.033c-.635 3.395-1.82 4.577-4.502 6.686-2.563.5-2.563.5-5 0-3.104-3.167-3.384-5.591-3.398-9.938l-.012-3.46.035-3.602-.035-3.602.012-3.46.01-3.16C96 169 96 169 97.498 167.114c1.76-2.48 1.888-3.723 1.919-6.728l.05-2.751.01-2.948A1436.593 1436.593 0 0 0 99.625 142c.037-3.213.077-6.426.123-9.64.027-1.998.048-3.997.063-5.996l.031-2.75.02-2.414c.137-2.182.537-4.102 1.138-6.2Z"/>
        <path fill="#E2A81E" d="M134 109c-.951 3.764-2.556 5.67-5.441 8.102-8.655 6.93-8.655 6.93-12.524 16.859-.087 2.515-.037 4.995.05 7.51.181 6.048.181 6.048-1.616 9.29C110.136 155 110.136 155 108 155v-29l7-4c2.154-1.553 4.221-3.178 6.3-4.828C123 116 123 116 125 116a68.812 68.812 0 0 0 3.5-3.5c3.278-3.5 3.278-3.5 5.5-3.5Z"/>
        <path fill="#E8B422" d="m68 75 1 2h5c1 3 1 3 .063 6-2.042 6.734-2.099 13.509.75 20 3.51 6.347 8.904 11.134 14.187 16l-3 1-1.863-2.082-2.45-2.73-2.425-2.708c-1.714-1.88-3.44-3.706-5.262-5.48l-3 4c-4.762-3.612-5.923-8.362-7-14-.9-8.24.33-14.594 4-22Z"/>
        <path fill="#E1A71A" d="m17.5 94.688 2.918-.049 2.8-.002 2.561-.009c2.706.454 3.619 1.174 5.221 3.373-.125 2.562-.125 2.562-1 5-3.216 2.143-4.11 2.255-7.816 2.265l-2.815.008-2.931-.023-2.944.023-2.81-.008-2.577-.007C6 105.001 6 105.001 4 103.001c-.313-3-.313-3 0-6 4.372-2.915 8.358-2.33 13.5-2.313Z"/>
        <path fill="#ECC63D" d="M186.438 94.75c1.451-.03 1.451-.03 2.932-.063l2.814-.015 2.58-.028C197 95 197 95 198.814 96.36 200 98 200 98 199.812 100.563 199 103 199 103 197 105c-3.459.45-6.952.324-10.437.313l-2.932.048-2.814.002-2.58.01c-2.237-.373-2.237-.373-4.05-1.7C173 102 173 102 173.189 98.875l.813-2.875c3.761-1.88 8.298-1.228 12.437-1.25Z"/>
        <path fill="#1C211E" d="M110 28v1H95v2c-6.575 2.908-6.575 2.908-9.313 3.5-2.1.427-2.1.427-3.687 3.5l4 2a714.502 714.502 0 0 1-5.75 3l-3.234 1.688C74 46 74 46 70 46c-2.75-2.313-2.75-2.313-5-5v-3c15.207-8.211 27.75-10.487 45-10Z"/>
        <path fill="#E3AA2B" d="M101 115h2c1.126 5.465 1.185 10.805 1.246 16.36l.1 6.066c.047 3.175.092 6.35.13 9.527.04 3.073.092 6.146.145 9.219l.026 2.894.05 2.671.031 2.354c.111 2.149.111 2.149 2.272 3.909.195 3.04.195 3.04.125 6.625l-.055 3.602L107 181h-1l-.148-2.3-.227-3.012c-.07-.987-.14-1.973-.21-2.989-.254-2.914-.254-2.914-2.415-5.699l-1.875.938L97 170l.976-1.85c1.468-4.515 1.362-8.839 1.403-13.56l.051-3.044c.053-3.203.094-6.406.132-9.608.044-3.207.091-6.413.143-9.62.032-1.993.06-3.986.08-5.98l.041-2.74.03-2.404c.143-2.177.546-4.1 1.144-6.194Z"/>
        <path fill="#D59A28" d="M133 125c3.092 1.376 5.196 2.952 7.575 5.348l2.062 2.062 2.191 2.223 2.27 2.278c2.389 2.4 4.77 4.807 7.152 7.214l4.86 4.887c3.968 3.99 7.931 7.987 11.89 11.988l-1 3c-2.816-1.283-4.861-2.615-7.037-4.81l-1.71-1.71c-.597-.608-1.195-1.217-1.812-1.843l-1.897-1.906c-1.999-2.01-3.99-4.027-5.982-6.043a8224.123 8224.123 0 0 0-4.01-4.038 4444.105 4444.105 0 0 1-7.386-7.452A1758.658 1758.658 0 0 0 132 128l1-3Z"/>
        <path fill="#D9A237" d="M33 38c4.627.868 7.085 3.652 10.297 6.898a909.106 909.106 0 0 1 5.54 5.548 884.368 884.368 0 0 0 5.76 5.741 3197.43 3197.43 0 0 1 3.637 3.649l1.752 1.733C64 65.655 64 65.655 64 69c-4.892-.42-6.766-2.443-10-6l-2.563-2.5C49 58 49 58 47.188 55.625 44.157 51.988 40.588 49.073 37 46c-2.5-2.188-2.5-2.188-4-4v-4Z"/>
        <path fill="#121612" d="M49 41c5.874 4.926 11.298 9.904 16 16l-1 2h-3l3 6c-3.043-1.358-5.123-2.885-7.453-5.258l-1.875-1.894-1.922-1.973-1.969-1.996A1236.768 1236.768 0 0 1 46 49l.938-2.313A110.556 110.556 0 0 0 49 41Z"/>
        <path fill="#232C2E" d="M109 10c9.83-.786 19.38 2.428 28 7l-1 5c-.513-.182-1.026-.364-1.555-.55C125.82 18.617 116.946 17.373 108 16l1-6Z"/>
        <path fill="#C77C1B" d="m68 125 4 1c-1.082 3.245-1.612 3.728-4.164 5.785-4.104 3.48-7.893 7.2-11.672 11.024l-1.847 1.864c-2.552 2.579-5.1 5.162-7.643 7.749a2210.614 2210.614 0 0 1-5.635 5.7l-1.749 1.789c-1.392 1.401-2.837 2.75-4.29 4.089h-2c.583-3.415 1.673-5.038 4.127-7.452l1.992-1.981 2.162-2.106 2.208-2.188c2.33-2.307 4.67-4.603 7.011-6.898 2.34-2.304 4.676-4.61 7.01-6.92 1.454-1.436 2.911-2.87 4.371-4.3l1.992-1.962 1.76-1.727c1.472-1.44 1.472-1.44 2.367-3.466Z"/>
        <path fill="#141006" d="M126 150c7.875 6.75 7.875 6.75 10.438 9.875l1.496 1.805L139 163c-4.62 3.51-7.275 5.092-13 7v-20Z"/>
        <path fill="#070604" d="M77 151v19l-12-6c1.908-3.816 3.567-5.807 6.563-8.75l2.44-2.422C76 151 76 151 77 151Z"/>
        <path fill="#DDC45B" d="m168 38 3 1v2c-1.44 1.421-1.44 1.421-3.45 3.082-4.684 3.985-9.027 8.247-13.363 12.605l-2.271 2.26-2.186 2.19-1.956 1.96c-1.837 1.878-1.837 1.878-3.32 4.144L143 69h-3c.867-4.662 3.713-7.093 7.004-10.297l1.812-1.799c1.908-1.892 3.827-3.773 5.746-5.654 1.297-1.282 2.594-2.564 3.89-3.848C161.625 44.26 164.81 41.128 168 38Z"/>
        <path fill="#D9D290" d="M124.313 61.75c7.023 5.825 13.963 13.113 14.926 22.598.01 1.885-.102 3.771-.239 5.652h-1l-.625-3.813c-2.181-9.62-7.17-17.624-15.374-23.187l-3-1v-2c-13.672-3.067-13.672-3.067-27-1-2 .04-4.001.043-6 0 9.319-9.32 28.948-3.84 38.312 2.75Z"/>
        <path fill="#D49C1C" d="M178 166c1.46.282 2.918.576 4.375.875l2.46.492C187 168 187 168 189 170c.368 2.87.375 4.408-1.188 6.875C186 178 186 178 183.438 177.813 181 177 181 177 179 175c-1.761-3.522-2.12-5.267-1-9Z"/>
        <path fill="#F2D867" d="M185.125 21.25C188 22 188 22 189 23c.29 2.76.438 4.378-1.188 6.688C184.198 32.304 181.469 33 177 33c.257-1.44.53-2.877.813-4.313l.457-2.425c1.3-4.029 2.585-5.354 6.855-5.012Z"/>
        <path fill="#EBCD52" d="M19.5 20.75C22 21 22 21 24 23c1.297 3.891 2 6.878 2 11-1.46-.45-2.918-.91-4.375-1.375l-2.46-.773C17 31 17 31 15 29c-.25-3-.25-3 0-6 2-2 2-2 4.5-2.25Z"/>
        <path fill="#D9BA48" d="M148 111h39c0 7 0 7-2 10v-7h-37v-3Z"/>
        <path fill="#332613" d="m101.063 27.875 2.623.027c2.105.024 4.21.06 6.314.098v1H95v2l-3.374 1.438c-1.893.815-3.783 1.64-5.626 2.562v-2c-4.72 1.543-9.416 3.078-14 5v-4a436.535 436.535 0 0 1 4.438-1.875l2.496-1.055c7.42-2.59 14.297-3.353 22.129-3.195Z"/>
        <path fill="#D59B23" d="m79 132 .184 3.797.254 4.953.119 2.5.127 2.422.11 2.222c.207 2.118.637 4.058 1.206 6.106-2.576-1.913-2.984-2.902-3.512-6.137l-.175-3.55-.2-3.575L77 138c-5.963 5.054-11.531 10.417-17 16l-1-3c3.142-3.17 6.29-6.336 9.438-9.5l2.72-2.746 2.588-2.598 2.396-2.412C78 132 78 132 79 132Z"/>
        <path fill="#D07F09" d="M26 167a240.8 240.8 0 0 1-.813 4.375l-.457 2.46C24 176 24 176 21 178c-4.54-.54-4.54-.54-6-2-.188-2.938-.188-2.938 0-6 2.84-2.84 7.189-4.906 11-3Z"/>
        <path fill="#CBA535" d="M17 111h39c2 5 2 5 2 8H36l-1 4-1-5 3.613-.184 4.7-.254 2.38-.119 2.295-.127 2.11-.11c2.124-.162 2.124-.162 4.902-1.206l1-4H17v-1Z"/>
        <path fill="#E1D996" d="M108 16c16.856-.467 33.195 6.143 46 17l-2 1-1.652-1.172c-7.612-5.256-15.087-8.644-23.989-11.117C124 21 124 21 121.566 19.984c-2.79-1.07-5.435-1.612-8.379-2.109l-2.957-.508L108 17v-1Z"/>
        <path fill="#3F3A21" d="M171 41c0 2 0 2-2.18 4.294L166 48c-1.71 1.765-3.419 3.532-5.125 5.3a2707.36 2707.36 0 0 1-4.377 4.477 497.601 497.601 0 0 0-2.996 3.098 463.2 463.2 0 0 1-4.377 4.488l-2.617 2.697C144 70 144 70 141.18 70.29L139 70l1-4v3c3.179-1.375 4.981-2.863 7.168-5.531 4.148-4.898 8.61-9.43 13.144-13.969l2.456-2.492 2.345-2.352 2.119-2.13C169 41 169 41 171 41Z"/>
        <path fill="#101617" d="M95 29c11.5-.541 20.7-.757 31 5v2a415.708 415.708 0 0 1-4.813-.375c-.893-.07-1.786-.14-2.707-.21C116 35 116 35 113 33v-2a99.984 99.984 0 0 0-5 0l-1 1c-2.353.073-4.708.084-7.063.063l-3.91-.028L93 32l2-1v-2Z"/>
        <path fill="#DAAC45" d="M33 38c3.984.544 5.784 2.435 8.547 5.254l2.558 2.588 2.645 2.72 2.691 2.733A1572.42 1572.42 0 0 1 56 58c-3.72 0-4.19-.813-6.813-3.313-2.453-2.242-4.313-3.75-7.312-5.25C38.282 47.642 35.298 45.334 33 42v-4Z"/>
        <path fill="#DFBC4A" d="M37 71c1 3 1 3-1 9h21c-2 7-2 7-3 8a62.92 62.92 0 0 1-4.254.098l-2.588-.01-2.72-.025-2.733-.014C39.47 88.037 37.235 88.02 35 88v-1l18-1 1-4H35c1-9 1-9 2-11Z"/>
        <path fill="#2E2B1B" d="m157 36 1 3-2.313 2.188c-2.683 2.58-2.683 2.58-4.046 5.203-1.864 2.964-3.934 4.885-6.578 7.172-3.13 2.723-6.162 5.47-9.063 8.437l-1-2-2-1 2.226-1.24c2.772-1.759 4.854-3.597 7.165-5.92l2.398-2.404c.812-.825 1.624-1.65 2.461-2.498l2.508-2.51c4.098-3.856 4.098-3.856 7.242-8.428Z"/>
        <path fill="#B8620F" d="M50.214 146.323 52 147a2551 2551 0 0 1-8.375 8.5l-2.406 2.457-2.305 2.324-2.126 2.158C35 163.999 35 163.999 33 163.999c.896-5.124 4.248-7.761 7.813-11.312l1.908-1.994 1.861-1.87 1.695-1.715C48 146 48 146 50.214 146.323Z"/>
        <path fill="#EAC034" d="m128 105 3 2-1.813 1.188c-2.295 1.686-2.295 1.686-3.519 4.132-1.865 2.997-3.917 5.017-6.543 7.368l-2.555 2.324c-2.483 1.92-4.61 2.996-7.57 3.988 4.341-5.306 9.05-10.124 13.948-14.911 2.89-2.766 2.89-2.766 5.052-6.089Z"/>
        <path fill="#E7D87D" d="M101.75 72.625c5.282.101 8.264.68 12.25 4.375 4.26 4.563 6.136 7.338 6.063 13.625l-.028 3.04L120 96h-1l-.367-2.23-.508-2.957-.492-2.918c-.62-2.832-1.367-5.288-2.633-7.895-2.041-.887-2.041-.887-4-1v-2c-3.929-1.851-6.988-2.22-11.313-2.125l-3.238.055L94 75c2.655-2.655 4.05-2.329 7.75-2.375Z"/>
        <path fill="#D6CA82" d="M172 52c5.696 5.203 8.046 11.002 11 18l1.012 2.273c2.155 5.152 2.66 10.215 2.988 15.727h-2l-.48-2.676C182.95 77.252 180.746 70.307 177 63c-4-8-4-8-5-11Z"/>
        <path fill="#0A1011" d="m151 70 1 2c3.046.47 3.046.47 6.563.625l3.628.227L165 73v6c-3-1-3-1-4-2a103.535 103.535 0 0 0-5.063-.563l-2.785-.253L151 76a88.406 88.406 0 0 1-1-5l1-1Z"/>
        <path fill="#362A15" d="M152 71h14c2 5 2 5 2 9h-21l-1 2v-3h19v-6l-13-1v-1Z"/>
        <path fill="#0D0C06" d="M129 116c0 3.698-.829 4.314-3.25 7l-1.828 2.063C122 127 122 127 119.773 128.358c-2.084 1.57-2.084 1.57-2.093 4.532l.195 3.359c.172 5.122-.095 8.965-1.875 13.75-2.824-5.648-1.77-15.064 0-21 3.265-5.329 8.11-9.212 13-13Z"/>
        <path fill="#E5D47B" d="M186.438 94.75c1.451-.03 1.451-.03 2.932-.063l2.814-.015 2.58-.028C197 95 197 95 198.82 96.353 200 98 200 98 199.687 100.688L199 103c-2-3.75-2-3.75-2-6l-23 1v-2c3.762-1.88 8.299-1.228 12.438-1.25Z"/>
        <path fill="#E7CB5A" d="M7 95a887.68 887.68 0 0 1 10.313-.188l2.958-.076 2.842-.029 2.619-.048C28 95 28 95 29.825 96.382 31 98 31 98 30.688 100.187L30 102c-1.708-1.634-2.935-2.87-4-5H6l1-2Z"/>
        <path fill="#D78D11" d="M155 149c3.84 1.564 6.1 4.1 9 7l2.688 1.563c2.538 1.577 3.268 2.686 4.312 5.437-4 0-4 0-7.016-2.555a249.574 249.574 0 0 1-3.234-3.32l-1.68-1.684c-4.07-4.16-4.07-4.16-4.07-6.441Z"/>
        <path fill="#0C0703" d="M149 89h37v1c-21.92 1.148-21.92 1.148-30.04.938-2.177-.025-2.177-.025-4.96 1.062l-2-3Z"/>
        <path fill="#EBD26B" d="M34 54a182.067 182.067 0 0 1 17 16v1H38v-1l7-1c-1.938-4.758-5.65-7.722-9.313-11.188C34 56 34 56 34 54Z"/>
        <path fill="#DEB13B" d="m150 56 2 3a603.814 603.814 0 0 1-4.313 5l-2.425 2.813C143 69 143 69 140 69c.518-4.104 2.646-5.957 5.563-8.75l2.503-2.422L150 56Z"/>
        <path fill="#E2A322" d="M125 148h2l-1 19h-1l-1-12-4 4-2-1 1.277-1.68 1.66-2.195 1.653-2.18c1.45-1.889 1.45-1.889 2.41-3.945Z"/>
        <path fill="#0C0501" d="M107 124h2l-1 31h-1l-.076-2.34c-.116-3.49-.239-6.981-.362-10.472l-.119-3.682-.127-3.526-.11-3.253c-.101-2.82-.101-2.82-1.206-5.727l2-2Z"/>
        <path fill="#BD7212" d="M61 136c-1.534 3.989-4.425 7.648-8 10-2.195-.332-2.195-.332-4-1a564.22 564.22 0 0 1 4.313-4.5l2.425-2.531C58 136 58 136 61 136Z"/>
        <path fill="#E1BC4C" d="M89 120c4.875 3.75 4.875 3.75 6 6 .085 1.813.107 3.63.098 5.445l-.01 3.262-.025 3.418-.014 3.441A2714.83 2714.83 0 0 1 95 150h-1l-1-23-2-1a101.168 101.168 0 0 1-2-6Z"/>
        <path fill="#191409" d="M123 131c4.974.995 5.979 1.307 9 5v2c-3.092-1.386-4.492-2.492-7-5l-1 19h-1v-21Z"/>
        <path fill="#C4B152" d="M73 100a112.55 112.55 0 0 1 3.5 5.563c3.368 5.117 8.117 9.205 12.5 13.437l-3 1-1.863-2.082-2.45-2.73-2.425-2.708c-2.114-2.395-2.114-2.395-4.012-4.074-2.13-2.397-1.959-5.32-2.25-8.406Z"/>
        <path fill="#19170D" d="m86 67 3 1c-2.24 3.42-4.48 4.988-8 7a207.388 207.388 0 0 0-5 4c1.31-5.402 5.433-9.088 10-12Z"/>
        <path fill="#0F1009" d="M137 126c4.629 1.376 5.582 2.97 8 7 2.057 1.902 4.182 3.683 6.355 5.45L153 140v2c-4.286-1.665-7.086-4.79-10.25-8l-1.68-1.656c-4.07-4.09-4.07-4.09-4.07-6.344Z"/>
        <path fill="#BC7514" d="m58 152 1 2c-3.958 4.825-7.592 8.834-13 12 1.587-3.903 4.134-6.335 7.125-9.25l2.758-2.703L58 152Z"/>
        <path fill="#0F0C07" d="M66 76c1 3 1 3 .125 5.5-1.32 4.109-1.55 7.916-1.781 12.207L64 96l-2 1c.087-2.564.194-5.125.313-7.688l.068-2.185c.226-4.498.868-7.388 3.619-11.127Z"/>
        <path fill="#E4C340" d="m128 105 3 2-1.813 1.188c-2.344 1.715-2.344 1.715-3.625 4.437C124 115 124 115 121.313 115.813L119 116l1.207-1.39c2.704-3.133 5.373-6.249 7.793-9.61Z"/>
        <path fill="#282315" d="M131 35c2.972 1.125 5.334 2.223 8 4l-1 3-5-1-2-6Z"/>
        <path fill="#33240B" d="M130 87h2c.081 1.75.14 3.5.188 5.25l.105 2.953C132 98 132 98 129 102l1-15Z"/>
        <path fill="#CCB03F" d="m22 26 5 5-1 3-9-3c3-2 3-2 5-2v-3Z"/>
        <path fill="#CC9C2E" d="M155 146c4.421 2.729 7.95 6.853 11 11-2.843-1.158-4.314-2.322-6.5-4.563-2.45-2.389-3.298-2.865-6.5-3.437l-1-2 3-1Z"/>
        <path fill="#F8CD33" d="M129 107c.684 1.766.684 1.766 1 4-1.215 1.922-1.215 1.922-2.938 3.75l-1.714 1.86L124 118l-1-2c.96-1.91.96-1.91 2.375-4.063l1.398-2.16C128 108 128 108 129 107Z"/>
        <path fill="#EDC946" d="M72 83c1.204 3.754 1.099 7.332 1.063 11.25l-.028 3.828L73 101l-3-2c.14-2.292.288-4.584.438-6.875.08-1.276.162-2.552.246-3.867C71 85 71 85 72 83Z"/>
        <path fill="#E5C04C" d="m158 50 2 1a516.663 516.663 0 0 1-3.375 3.5l-1.898 1.969C153 58 153 58 151 58c.562-3.262 1.414-4.911 4-7l3-1Z"/>
        <path fill="#C39125" d="m43 97 5 1-1 4-5-1 1-4Z"/>
        <path fill="#3C3E27" d="M171 41c0 2 0 2-2.25 4.438-2.181 2.032-4.317 3.85-6.75 5.562.579-3.288 1.548-4.937 3.938-7.25l1.59-1.578C169 41 169 41 171 41Z"/>
        <path fill="#171E23" d="m114.48 6.926 2.707.387 2.73.363L122 8v3l-13-1c3-3 3-3 5.48-3.074Z"/>
        <path fill="#D1B555" d="M44 47c4.526 3.678 8.394 7.41 12 12-2.882-1.336-5.253-2.836-7.688-4.875l-1.824-1.492C44.795 50.775 44.398 49.453 44 47Z"/>
        <path fill="#D4973D" d="m33 38 4 1 2 8c-4.688-3.516-4.688-3.516-6-5v-4Z"/>
        <path fill="#CBA73F" d="M179 24h1v6h6c-2.967 1.648-5.656 2.443-9 3l2-9Z"/>
        <path fill="#DDA433" d="M156 97h5v5l-5-1v-4Z"/>
        <path fill="#332D19" d="m147 63 3 1c-5.094 5.882-5.094 5.882-8.875 6.375L139 70l1-4v3c3.367-1.393 4.986-2.979 7-6Z"/>
        <path fill="#D2B851" d="m171 51 2 1a243.553 243.553 0 0 1-2.75 3.438l-1.547 1.933c-1.9 1.817-3.139 2.233-5.703 2.629.957-1.126 1.916-2.25 2.875-3.375l1.617-1.898A75.822 75.822 0 0 1 171 51Z"/>
        <path fill="#080D0C" d="M100.188 63.938c1.887.03 1.887.03 3.813.063-1.126 1.5-1.126 1.5-3 3-3.063.312-3.063.312-6 0l-2-2c2.75-.917 4.359-1.11 7.187-1.063Z"/>
        <path fill="#EBA31D" d="M54 60c3.366 1.443 5.51 3.333 8 6l-1 3c-2.964-2.808-5.445-5.183-7-9Z"/>
        <path fill="#D09822" d="m26 167-1 4c-3.204 0-5.094-.743-8-2v-1c6.75-2.125 6.75-2.125 9-1Z"/>
        <path fill="#B87A22" d="m68 125 4 1c-1 3-1 3-3.063 4.188L67 131l-2-2 3-4Z"/>
        <path fill="#CFA936" d="m90 76 2 1-1.059 1.46-1.379 1.915-1.37 1.898C86.944 83.994 86.944 83.994 86 86h-2c1.208-4.43 2.517-6.981 6-10Z"/>
        <path fill="#1F180B" d="M113 66c3.375.547 5.082 1.055 8 3l-1 3c-1.813-.188-1.813-.188-4-1-1.75-2.563-1.75-2.563-3-5Z"/>
        <path fill="#172126" d="M89 52h6v4h-8l2-4Z"/>
        <path fill="#C2861D" d="m166 157 5 4-1 3-4-2v-5Z"/>
        <path fill="#D8AD2B" d="M127 115h2c-1.583 4.274-4.506 6.265-8 9v-3h2l1-3h2l1-3Z"/>
        <path fill="#21251E" d="m198 96 3 1c.25 3.313.25 3.313 0 7-2 1.938-2 1.938-4 3l.438-1.688c1.48-4.736 1.48-4.736.562-9.312Z"/>
        <path fill="#050B0D" d="M0 99h3l1 4H2l-1 5H0v-9Z"/>
        <path fill="#312B1B" d="m145 58 3 1-7 7-1-3 1.938-.813C144.33 61.114 144.33 61.114 145 58Z"/>
        <path fill="#F0CA50" d="m46 68 5 2v1H38v-1l3.438-.438c3.37-.174 3.37-.174 4.562-1.562Z"/>
        <path fill="#D6A334" d="M71 55c2.063.438 2.063.438 4 1-1.688 1.563-1.688 1.563-4 3-2.75-.313-2.75-.313-5-1l1.938-.938c1.998-.897 1.998-.897 3.062-2.062Z"/>
        <path fill="#CE8311" d="M180 175h8l-2 3c-2.438-.375-2.438-.375-5-1l-1-2Z"/>
        <path fill="#432D0E" d="M91 49c-6.4 3.077-6.4 3.077-9.438 2.688L80 51c7.429-3.571 7.429-3.571 11-2Z"/>
        <path fill="#E2BD4A" d="m53 30 3 1c-1.75 2.063-1.75 2.063-4 4-2.25-.25-2.25-.25-4-1 2.313-2.063 2.313-2.063 5-4Z"/>
        <path fill="#191608" d="M129 116c0 3 0 3-2.5 5.688L124 124l-2-1 7-7Z"/>
    </g>
</svg>
